<mxfile host="65bd71144e">
    <diagram id="n_PGgjzYY90XFIyNxaz5" name="第 1 页">
        <mxGraphModel dx="863" dy="805" grid="1" gridSize="10" guides="1" tooltips="1" connect="1" arrows="1" fold="1" page="1" pageScale="1" pageWidth="827" pageHeight="1169" background="#ffffff" math="0" shadow="0">
            <root>
                <mxCell id="0"/>
                <mxCell id="1" parent="0"/>
                <mxCell id="2" value="" style="rounded=0;whiteSpace=wrap;html=1;fontSize=14;fillColor=none;strokeColor=#000000;fontColor=#000000;" parent="1" vertex="1">
                    <mxGeometry x="30" y="40" width="760" height="270" as="geometry"/>
                </mxCell>
                <mxCell id="3" value="渲染进程" style="text;html=1;fillColor=none;align=center;verticalAlign=middle;whiteSpace=wrap;rounded=0;fontSize=14;strokeColor=#000000;fontColor=#000000;" parent="1" vertex="1">
                    <mxGeometry x="400" y="40" width="60" height="30" as="geometry"/>
                </mxCell>
                <mxCell id="4" value="上一帧" style="text;html=1;fillColor=none;align=center;verticalAlign=middle;whiteSpace=wrap;rounded=0;fontSize=14;strokeColor=#000000;fontColor=#000000;" parent="1" vertex="1">
                    <mxGeometry x="140" y="76" width="60" height="30" as="geometry"/>
                </mxCell>
                <mxCell id="5" value="主线程" style="text;html=1;fillColor=none;align=center;verticalAlign=middle;whiteSpace=wrap;rounded=0;fontSize=14;strokeColor=#000000;fontColor=#000000;" parent="1" vertex="1">
                    <mxGeometry x="50" y="150" width="60" height="30" as="geometry"/>
                </mxCell>
                <mxCell id="6" value="合成线程" style="text;html=1;fillColor=none;align=center;verticalAlign=middle;whiteSpace=wrap;rounded=0;fontSize=14;strokeColor=#000000;fontColor=#000000;" parent="1" vertex="1">
                    <mxGeometry x="60" y="250" width="60" height="30" as="geometry"/>
                </mxCell>
                <mxCell id="7" value="下一帧" style="text;html=1;fillColor=none;align=center;verticalAlign=middle;whiteSpace=wrap;rounded=0;fontSize=14;strokeColor=#000000;fontColor=#000000;" parent="1" vertex="1">
                    <mxGeometry x="650" y="77" width="60" height="30" as="geometry"/>
                </mxCell>
                <mxCell id="13" value="DOM" style="rounded=0;whiteSpace=wrap;html=1;fontSize=14;fillColor=#3399FF;strokeColor=#000000;fontColor=#000000;" parent="1" vertex="1">
                    <mxGeometry x="180" y="140" width="70" height="40" as="geometry"/>
                </mxCell>
                <mxCell id="14" value="Style" style="rounded=0;whiteSpace=wrap;html=1;fontSize=14;fillColor=#3399FF;strokeColor=#000000;fontColor=#000000;" parent="1" vertex="1">
                    <mxGeometry x="240" y="140" width="80" height="40" as="geometry"/>
                </mxCell>
                <mxCell id="15" value="Layout" style="rounded=0;whiteSpace=wrap;html=1;fontSize=14;fillColor=#3399FF;strokeColor=#000000;fontColor=#000000;" parent="1" vertex="1">
                    <mxGeometry x="320" y="140" width="70" height="40" as="geometry"/>
                </mxCell>
                <mxCell id="16" value="Layer" style="rounded=0;whiteSpace=wrap;html=1;fontSize=14;fillColor=#3399FF;strokeColor=#000000;fontColor=#000000;" parent="1" vertex="1">
                    <mxGeometry x="390" y="140" width="70" height="40" as="geometry"/>
                </mxCell>
                <mxCell id="17" value="Paint" style="rounded=0;whiteSpace=wrap;html=1;fontSize=14;fillColor=#3399FF;strokeColor=#000000;fontColor=#000000;" parent="1" vertex="1">
                    <mxGeometry x="460" y="140" width="50" height="40" as="geometry"/>
                </mxCell>
                <mxCell id="18" value="..." style="rounded=0;whiteSpace=wrap;html=1;fontSize=14;fillColor=#3399FF;strokeColor=#000000;fontColor=#000000;" parent="1" vertex="1">
                    <mxGeometry x="530" y="225" width="100" height="40" as="geometry"/>
                </mxCell>
                <mxCell id="21" value="" style="line;strokeWidth=2;html=1;fontSize=14;fillColor=none;strokeColor=#000000;fontColor=#000000;" parent="1" vertex="1">
                    <mxGeometry x="160" y="180" width="560" height="10" as="geometry"/>
                </mxCell>
                <mxCell id="22" value="" style="line;strokeWidth=2;html=1;fontSize=14;fillColor=none;strokeColor=#000000;fontColor=#000000;" parent="1" vertex="1">
                    <mxGeometry x="160" y="270" width="560" height="10" as="geometry"/>
                </mxCell>
                <mxCell id="23" value="当前处理帧" style="text;html=1;fillColor=none;align=center;verticalAlign=middle;whiteSpace=wrap;rounded=0;fontSize=14;strokeColor=#000000;fontColor=#000000;" parent="1" vertex="1">
                    <mxGeometry x="360" y="77" width="120" height="30" as="geometry"/>
                </mxCell>
                <mxCell id="25" value="" style="line;strokeWidth=2;html=1;fontSize=14;fillColor=none;strokeColor=#000000;fontColor=#000000;" parent="1" vertex="1">
                    <mxGeometry x="155" y="100" width="560" height="10" as="geometry"/>
                </mxCell>
                <mxCell id="26" value="" style="edgeStyle=segmentEdgeStyle;endArrow=classic;html=1;curved=0;rounded=0;endSize=8;startSize=8;entryX=0.59;entryY=0.067;entryDx=0;entryDy=0;entryPerimeter=0;fontSize=14;fillColor=none;strokeColor=#000000;fontColor=#000000;" parent="1" target="22" edge="1">
                    <mxGeometry width="50" height="50" relative="1" as="geometry">
                        <mxPoint x="490" y="190" as="sourcePoint"/>
                        <mxPoint x="540" y="140" as="targetPoint"/>
                    </mxGeometry>
                </mxCell>
                <mxCell id="27" value="commit" style="text;html=1;fillColor=#3399FF;align=center;verticalAlign=middle;whiteSpace=wrap;rounded=0;fontSize=14;strokeColor=#000000;fontColor=#000000;" parent="1" vertex="1">
                    <mxGeometry x="430" y="225" width="60" height="30" as="geometry"/>
                </mxCell>
            </root>
        </mxGraphModel>
    </diagram>
</mxfile>